<!-- Generated by IcoMoon.io -->
<svg version="1.1" xmlns="http://www.w3.org/2000/svg" width="1024" height="1024" viewBox="0 0 1024 1024">
<g id="icomoon-ignore">
</g>
<path d="M512 768l51.2-102.4v-263.27c88.115-22.886 153.6-102.4 153.6-197.53 0-112.947-91.853-204.8-204.8-204.8s-204.8 91.853-204.8 204.8c0 95.13 65.485 174.643 153.6 197.53v263.27l51.2 102.4zM409.6 204.8c0-56.474 45.926-102.4 102.4-102.4s102.4 45.926 102.4 102.4c0 56.474-45.926 102.4-102.4 102.4s-102.4-45.926-102.4-102.4z"></path>
<path d="M730.47 438.426l-27.29 98.713c132.659 36.659 218.419 107.162 218.419 179.661 0 96.87-168.192 204.8-409.6 204.8s-409.6-107.93-409.6-204.8c0-72.499 85.76-143.002 218.47-179.712l-27.29-98.713c-181.094 50.074-293.581 156.723-293.581 278.425 0 172.237 224.922 307.2 512 307.2s512-134.963 512-307.2c0-121.702-112.486-228.351-293.53-278.374z"></path>
</svg>
