<svg aria-hidden="true" style="position: absolute; width: 0; height: 0; overflow: hidden;" version="1.1" xmlns="http://www.w3.org/2000/svg" xmlns:xlink="http://www.w3.org/1999/xlink">
<defs>
<symbol id="icon-favicon" viewBox="0 0 32 32">
<path d="M31.923 14.443c-0.861-8.81-8.713-15.247-17.521-14.362-8.775 0.881-15.182 8.698-14.324 17.476s8.658 15.205 17.438 14.371c8.812-0.838 15.269-8.674 14.408-17.484zM19.996 3.775c0.195-0.001 0.341 0.039 0.523 0.089l0.039 0.011c0.071 0.357-0 0.522-0.187 0.826-0.326 0.531-0.69 1.040-1.053 1.549-0.641 0.898-1.283 1.796-1.722 2.819-0.953 2.218-0.731 4.806-0.506 7.42 0.196 2.288 0.395 4.597-0.192 6.698-0.705 2.527-2.476 4.18-4.693 5.412-0.123 0.021-0.259 0.010-0.389 0-0.027-0.002-0.054-0.004-0.081-0.006-0.017-0.001-0.034-0.002-0.050-0.003l-0.021-0.041c-0.126-0.24-0.134-0.255-0.043-0.528 0.119-0.355 0.355-0.717 0.577-1.059 0.085-0.131 0.168-0.258 0.242-0.381 0.771-1.284 1.526-2.671 1.762-4.169 0.295-1.871 0.138-3.797-0.019-5.722-0.199-2.443-0.399-4.887 0.326-7.22 0.891-2.866 2.976-4.36 5.486-5.694z"></path>
</symbol>
<symbol id="icon-arow" viewBox="0 0 32 32">
<path fill="#fff" style="fill: var(--color1, #fff)" d="M13.036 5.44l10.646 10.56-10.646 10.56 3.466 3.495 14.171-14.055-14.171-14.055-3.466 3.495z"></path>
<path fill="#fff" style="fill: var(--color1, #fff)" d="M4.194 1.945l-3.466 3.495 10.646 10.56-10.646 10.56 3.466 3.495 14.171-14.055-14.171-14.055z"></path>
</symbol>
<symbol id="icon-oneArow" viewBox="0 0 21 32">
<path d="M4.552 31.273l15.219-15.219-15.219-15.219-3.771 3.771 11.448 11.448-11.448 11.448 3.771 3.771z"></path>
</symbol>
<symbol id="icon-close-menu" viewBox="0 0 32 32">
<path d="M27.179 0.918l-11.315 11.312-11.312-11.312-3.771 3.771 11.312 11.312-11.312 11.312 3.771 3.771 11.312-11.312 11.315 11.312 3.771-3.771-11.312-11.312 11.312-11.312-3.771-3.771z"></path>
</symbol>
<symbol id="icon-menuBurger" viewBox="0 0 43 32">
<path d="M0 0h42.667v5.333h-42.667v-5.333zM0 13.333h42.667v5.333h-42.667v-5.333zM0 26.667h42.667v5.333h-42.667v-5.333z"></path>
</symbol>
<symbol id="icon-findLocation" viewBox="0 0 32 32">
<path fill="#fff" style="fill: var(--color1, #fff)" d="M16 24l1.6-3.2v-8.227c2.754-0.715 4.8-3.2 4.8-6.173 0-3.53-2.87-6.4-6.4-6.4s-6.4 2.87-6.4 6.4c0 2.973 2.046 5.458 4.8 6.173v8.227l1.6 3.2zM12.8 6.4c0-1.765 1.435-3.2 3.2-3.2s3.2 1.435 3.2 3.2c0 1.765-1.435 3.2-3.2 3.2s-3.2-1.435-3.2-3.2z"></path>
<path fill="#fff" style="fill: var(--color1, #fff)" d="M22.827 13.701l-0.853 3.085c4.146 1.146 6.826 3.349 6.826 5.614 0 3.027-5.256 6.4-12.8 6.4s-12.8-3.373-12.8-6.4c0-2.266 2.68-4.469 6.827-5.616l-0.853-3.085c-5.659 1.565-9.174 4.898-9.174 8.701 0 5.382 7.029 9.6 16 9.6s16-4.218 16-9.6c0-3.803-3.515-7.136-9.173-8.699z"></path>
</symbol>
<symbol id="icon-email" viewBox="0 0 41 32">
<path d="M35.879 0.162h-31.030c-2.139 0-3.879 1.74-3.879 3.879v23.273c0 2.139 1.74 3.879 3.879 3.879h31.030c2.139 0 3.879-1.74 3.879-3.879v-23.273c0-2.139-1.74-3.879-3.879-3.879zM35.879 4.041v0.991l-15.515 12.069-15.515-12.067v-0.993h31.030zM4.848 27.313v-17.369l14.324 11.142c0.34 0.267 0.759 0.412 1.191 0.412s0.851-0.145 1.191-0.412l14.324-11.142 0.004 17.369h-31.034z"></path>
</symbol>
<symbol id="icon-facebook" viewBox="0 0 30 32">
<path d="M30.476 15.362c0-8.467-6.822-15.331-15.238-15.331s-15.238 6.864-15.238 15.331c0 7.652 5.572 13.995 12.857 15.145v-10.713h-3.869v-4.432h3.869v-3.378c0-3.842 2.275-5.965 5.756-5.965 1.667 0 3.411 0.299 3.411 0.299v3.773h-1.921c-1.893 0-2.483 1.182-2.483 2.394v2.876h4.226l-0.675 4.432h-3.551v10.713c7.285-1.15 12.857-7.493 12.857-15.145z"></path>
</symbol>
<symbol id="icon-instagram" viewBox="0 0 30 32">
<path d="M15.156 4.039c4.050 0 4.529 0.018 6.121 0.089 1.481 0.065 2.279 0.314 2.812 0.521 0.705 0.273 1.213 0.604 1.74 1.131 0.533 0.533 0.858 1.036 1.137 1.741 0.207 0.533 0.456 1.338 0.521 2.812 0.071 1.599 0.089 2.078 0.089 6.122s-0.018 4.529-0.089 6.122c-0.065 1.481-0.313 2.279-0.521 2.812-0.273 0.705-0.603 1.213-1.131 1.74-0.533 0.533-1.036 0.858-1.74 1.137-0.533 0.207-1.338 0.456-2.812 0.521-1.599 0.071-2.078 0.089-6.122 0.089s-4.529-0.018-6.122-0.089c-1.481-0.066-2.279-0.314-2.812-0.521-0.705-0.273-1.213-0.603-1.741-1.131-0.533-0.533-0.858-1.036-1.137-1.74-0.207-0.533-0.456-1.338-0.521-2.812-0.071-1.599-0.089-2.078-0.089-6.122s0.018-4.529 0.089-6.122c0.065-1.481 0.314-2.279 0.521-2.812 0.273-0.705 0.604-1.213 1.131-1.741 0.533-0.533 1.036-0.858 1.741-1.137 0.533-0.207 1.338-0.456 2.812-0.521 1.592-0.071 2.074-0.089 6.123-0.089zM15.156 1.31c-4.115 0-4.629 0.018-6.246 0.089-1.61 0.071-2.718 0.332-3.676 0.705-1 0.39-1.847 0.906-2.687 1.752-0.847 0.841-1.362 1.687-1.752 2.682-0.373 0.965-0.634 2.066-0.705 3.676-0.071 1.623-0.089 2.137-0.089 6.252s0.018 4.629 0.089 6.246c0.071 1.61 0.332 2.718 0.705 3.676 0.391 1 0.906 1.847 1.752 2.687 0.84 0.84 1.687 1.362 2.682 1.747 0.965 0.373 2.066 0.634 3.676 0.705 1.616 0.071 2.131 0.089 6.246 0.089s4.63-0.018 6.246-0.089c1.61-0.071 2.718-0.332 3.676-0.705 0.995-0.384 1.842-0.905 2.682-1.747s1.362-1.687 1.747-2.682c0.373-0.965 0.634-2.066 0.705-3.676 0.071-1.616 0.089-2.131 0.089-6.246s-0.018-4.629-0.089-6.246c-0.071-1.61-0.331-2.718-0.705-3.676-0.373-1.007-0.889-1.853-1.734-2.694-0.84-0.84-1.687-1.362-2.682-1.747-0.965-0.373-2.066-0.634-3.676-0.705-1.622-0.077-2.138-0.094-6.253-0.094z"></path>
<path d="M15.155 8.68c-4.298 0-7.785 3.487-7.785 7.785s3.487 7.785 7.785 7.785c4.299 0 7.785-3.487 7.785-7.785s-3.487-7.785-7.785-7.785zM15.155 21.515c-2.789 0-5.050-2.261-5.050-5.050s2.261-5.050 5.050-5.050c2.789 0 5.050 2.261 5.050 5.050s-2.261 5.050-5.050 5.050z"></path>
<path d="M25.065 8.373c0 1.004-0.814 1.818-1.818 1.818s-1.818-0.814-1.818-1.818 0.814-1.818 1.818-1.818c1.004 0 1.818 0.814 1.818 1.818z"></path>
</symbol>
<symbol id="icon-location" viewBox="0 0 25 32">
<path d="M12.572 18.794c3.362 0 6.095-2.734 6.095-6.095s-2.734-6.095-6.095-6.095c-3.361 0-6.095 2.734-6.095 6.095s2.734 6.095 6.095 6.095zM12.572 9.651c1.681 0 3.048 1.367 3.048 3.048s-1.367 3.048-3.048 3.048c-1.681 0-3.048-1.367-3.048-3.048s1.367-3.048 3.048-3.048z"></path>
<path d="M11.688 30.701c0.258 0.184 0.567 0.283 0.884 0.283s0.626-0.099 0.884-0.283c0.463-0.328 11.351-8.189 11.307-18.002 0-6.722-5.469-12.19-12.19-12.19s-12.191 5.469-12.191 12.183c-0.044 9.821 10.843 17.682 11.307 18.010zM12.572 3.555c5.042 0 9.143 4.101 9.143 9.15 0.032 6.763-6.686 12.835-9.143 14.827-2.455-1.993-9.175-8.067-9.143-14.834 0-5.042 4.101-9.143 9.143-9.143z"></path>
</symbol>
<symbol id="icon-logo" viewBox="0 0 57 32">
<path d="M22.968 8.795c-0.27-2.767-2.737-4.789-5.503-4.511-2.756 0.277-4.769 2.732-4.499 5.489s2.719 4.776 5.477 4.514c2.768-0.263 4.796-2.724 4.526-5.492zM19.222 5.444c0.061-0 0.107 0.012 0.164 0.028l0.012 0.003c0.022 0.112 0 0.164-0.059 0.259-0.103 0.167-0.217 0.327-0.331 0.486-0.201 0.282-0.403 0.564-0.541 0.886-0.299 0.697-0.23 1.51-0.159 2.331 0.062 0.719 0.124 1.444-0.060 2.104-0.222 0.794-0.778 1.313-1.474 1.7-0.039 0.007-0.081 0.003-0.122 0-0.009-0.001-0.017-0.001-0.025-0.002-0.005-0-0.011-0.001-0.016-0.001l-0.007-0.013c-0.040-0.075-0.042-0.080-0.013-0.166 0.037-0.111 0.111-0.225 0.181-0.333 0.027-0.041 0.053-0.081 0.076-0.12 0.242-0.403 0.479-0.839 0.554-1.31 0.093-0.588 0.043-1.193-0.006-1.797-0.063-0.767-0.125-1.535 0.102-2.268 0.28-0.9 0.935-1.37 1.723-1.789z"></path>
<path d="M34.801 23.395c-0.314-2.686-2.746-4.61-5.432-4.297-2.688 0.313-4.613 2.746-4.299 5.433s2.748 4.612 5.435 4.297c2.686-0.315 4.609-2.747 4.296-5.433zM29.376 20.224c0.65-0.048 1.258 0.11 1.782 0.5 0.848 0.631 1.281 1.673 1.424 2.694 0.152 1.077 0.137 2.573-0.565 3.475-0.383 0.492-0.867 0.691-1.466 0.765-0.639 0.062-1.278-0.11-1.8-0.482-0.825-0.595-1.249-1.573-1.402-2.553-0.175-1.116-0.169-2.678 0.555-3.62 0.385-0.501 0.866-0.7 1.472-0.778z"></path>
<path d="M6.894 0.245c0.872-0.114 1.858-0.025 2.706 0.189 0.516 0.13 1.030 0.307 1.558 0.381 0.303 0.043 0.621 0.039 0.927 0.045 0.050 0.849 0.213 2.883 0.115 3.63-0.156 0.030-0.276 0.022-0.433 0-0.161-0.186-0.237-0.602-0.333-0.844-0.355-0.884-1.056-1.564-1.934-1.925-1.101-0.452-2.417-0.394-3.502 0.075-1.14 0.493-2.069 1.478-2.522 2.633-0.701 1.788-0.696 4.083 0.090 5.843 0.545 1.22 1.515 2.293 2.784 2.769 1.211 0.455 2.528 0.32 3.688-0.212 0.518-0.264 0.997-0.657 1.306-1.156 0.174-0.282 0.303-0.818 0.579-1l0.077 0.031c0.297 0.376 0.408 1.55 0.506 2.055-1.119 0.986-2.468 1.639-3.951 1.835-1.941 0.255-3.967-0.137-5.535-1.347-1.428-1.102-2.295-2.833-2.509-4.607-0.249-2.062 0.206-4.142 1.511-5.783 1.202-1.512 2.971-2.396 4.874-2.614z"></path>
<path d="M43.346 5.142c-0.52-0.129-1.148-0.199-1.681-0.133-1.243 0.122-2.306 0.601-3.114 1.576-0.895 1.092-1.32 2.495-1.182 3.9 0.124 1.198 0.675 2.389 1.63 3.147 1.004 0.797 2.422 1.021 3.668 0.874 1.106-0.131 2.086-0.608 2.772-1.501 0.314-0.408 0.542-0.869 0.721-1.35-0.022-0.021-0.044-0.042-0.066-0.064-0.106-0.104-0.215-0.212-0.358-0.255-0.013 0.006-0.023 0.010-0.033 0.014-0.043 0.018-0.061 0.026-0.097 0.080-0.592 0.871-1.269 1.447-2.328 1.645-0.825 0.154-1.646 0.012-2.338-0.473-0.551-0.387-0.986-0.957-1.24-1.578 1.266-0.751 2.642-1.511 4.099-1.809 0.288-0.059 0.582-0.092 0.875-0.125 0.308-0.035 0.615-0.069 0.914-0.134 0.2-0.043 0.344-0.084 0.412-0.296 0.17-0.533-0.099-1.403-0.367-1.862-0.491-0.84-1.352-1.423-2.288-1.655zM42.058 5.989c0.237 0.001 0.49 0.018 0.718 0.081 0.386 0.106 0.735 0.335 0.923 0.696 0.13 0.25 0.232 0.651 0.13 0.924-0.086 0.23-0.272 0.387-0.477 0.508-0.256 0.151-0.563 0.248-0.859 0.342-0.101 0.032-0.2 0.063-0.295 0.096-0.517 0.179-1.026 0.373-1.519 0.612-0.113 0.050-0.255 0.14-0.407 0.236-0.285 0.18-0.602 0.38-0.817 0.377-0.115-0.096-0.144-0.176-0.156-0.32-0.080-0.958 0.306-2.047 0.925-2.771 0.454-0.53 1.166-0.726 1.834-0.78z"></path>
<path d="M52.658 5.050c-0.368-0.050-0.74-0.064-1.111-0.042-1.261 0.103-2.328 0.563-3.154 1.545-0.908 1.088-1.344 2.493-1.211 3.904 0.111 1.168 0.657 2.363 1.577 3.114 0.991 0.808 2.469 1.084 3.716 0.943 1.11-0.126 2.107-0.647 2.8-1.528 0.319-0.409 0.569-0.867 0.739-1.357-0.022-0.019-0.044-0.039-0.067-0.060-0.115-0.105-0.251-0.229-0.396-0.241-0.594 0.894-1.305 1.524-2.382 1.741-0.812 0.164-1.6 0.044-2.297-0.418-0.598-0.397-1.033-0.975-1.343-1.616 1.369-0.931 3.053-1.645 4.68-1.946 0.202-0.037 0.407-0.053 0.612-0.069 0.17-0.013 0.339-0.026 0.507-0.052 0.219-0.033 0.44-0.083 0.489-0.333 0.138-0.704-0.14-1.552-0.556-2.118-0.627-0.854-1.567-1.322-2.603-1.466zM51.456 6.023c0.424-0.034 0.837-0.055 1.246 0.095 0.392 0.143 0.708 0.426 0.879 0.81 0.113 0.252 0.161 0.535 0.055 0.798-0.061 0.148-0.172 0.283-0.301 0.378-0.308 0.225-1.070 0.491-1.732 0.722-0.327 0.114-0.629 0.22-0.841 0.308-0.34 0.152-0.669 0.336-0.996 0.52-0.182 0.102-0.363 0.204-0.547 0.3-0.154-0.938-0.057-1.894 0.453-2.716 0.422-0.679 1.017-1.038 1.783-1.213z"></path>
<path d="M20.018 16.304c1.004-0.006 3.825-0.131 4.586 0.070 0.064 0.087 0.058 0.089 0.050 0.198-0.176 0.296-0.551 0.415-0.812 0.628-0.15 0.122-0.286 0.297-0.331 0.488-0.168 0.709-0.102 1.528-0.102 2.256l-0.020 3.074c-0.005 0.733 0.018 1.483-0.068 2.212-0.123 1.043-0.583 2.012-1.426 2.662-1.050 0.81-2.517 0.99-3.801 0.816-1.124-0.152-2.221-0.639-2.921-1.562-0.634-0.837-0.795-1.815-0.66-2.838 0.036-0.181 0.081-0.355 0.146-0.528 0.239-0.638 0.707-1.162 1.339-1.433 0.667-0.286 1.508-0.307 2.178-0.018 0.326 0.14 0.531 0.381 0.651 0.715 0.073 0.204 0.097 0.379 0.004 0.577-0.27 0.255-0.878-0.087-1.256 0.019-0.349 0.098-0.615 0.342-0.782 0.658-0.29 0.549-0.297 1.268-0.089 1.846 0.185 0.515 0.603 0.931 1.095 1.159 0.585 0.27 1.407 0.338 2.018 0.111 0.473-0.176 0.821-0.552 1.012-1.015 0.165-0.398 0.242-0.856 0.28-1.283 0.087-0.963 0.196-6.777-0.016-7.406-0.224-0.663-0.986-0.683-1.161-1.087 0-0.098 0.002-0.165 0.049-0.251 0.012-0.023 0.026-0.045 0.038-0.067z"></path>
<path d="M40.762 27.076c0.428-1.060 0.798-2.152 1.192-3.225 0.308-0.836 0.688-1.7 0.876-2.57 0.040-0.185 0.058-0.369 0.006-0.554-0.158-0.565-0.887-0.52-1.052-0.956 0.023-0.096 0.009-0.137 0.101-0.196 0.169-0.108 3.144-0.119 3.509-0.073 0.121 0.015 0.208 0.043 0.288 0.14 0.008 0.21-0.042 0.305-0.231 0.412-0.303 0.171-0.688 0.258-0.915 0.539-0.357 0.443-1.702 4.23-2.034 5.091l-1.109 2.878c-0.279 0.723-0.541 1.509-0.956 2.166-0.252 0.398-0.591 0.783-1.001 1.020-0.599 0.345-1.36 0.408-2.022 0.222-0.515-0.145-0.986-0.464-1.233-0.949-0.195-0.384-0.243-0.895-0.1-1.304 0.107-0.305 0.354-0.557 0.648-0.689 0.191-0.084 0.502-0.158 0.699-0.051 0.469 0.255 0.163 1.097 0.343 1.546 0.061 0.151 0.149 0.257 0.303 0.319 0.251 0.101 0.686-0.037 0.912-0.147 0.764-0.373 1.085-1.573 1.339-2.315-0.321 0.006-0.691 0.045-1.007-0.010-0.049-0.008-0.111-0.021-0.155-0.047-0.105-0.061-0.172-0.171-0.226-0.276-0.249-0.486-0.418-1.051-0.613-1.563l-1.212-3.191c-0.239-0.627-0.455-1.281-0.748-1.884-0.218-0.45-0.51-0.909-0.959-1.157-0.223-0.123-0.516-0.121-0.667-0.345-0.026-0.152 0.001-0.245 0.048-0.39 0.804-0.033 4.036-0.117 4.63 0.049 0.033 0.113 0.038 0.27-0.007 0.382-0.071 0.176-0.412 0.231-0.569 0.294-0.169 0.068-0.316 0.171-0.382 0.349-0.072 0.197 0.024 0.513 0.081 0.712 0.246 0.872 0.643 1.734 0.97 2.583 0.409 1.060 0.777 2.16 1.253 3.191z"></path>
<path d="M35.072 1.037c0.714-0.037 1.391 0.054 2.014 0.428 0.455 0.273 0.841 0.683 0.956 1.214 0.063 0.288 0.043 0.593-0.125 0.844-0.182 0.272-0.55 0.484-0.873 0.524-0.194 0.024-0.422-0.002-0.578-0.128-0.361-0.292-0.193-0.81-0.261-1.209-0.037-0.215-0.149-0.396-0.335-0.512-0.281-0.176-0.72-0.235-1.039-0.146-0.279 0.077-0.479 0.274-0.608 0.528-0.409 0.807-0.182 1.861 0.070 2.677 0.856 0.021 1.716 0.004 2.573 0.003 0.002 0.363-0.004 0.721-0.032 1.083-0.827-0.001-1.656-0.013-2.483 0.018-0.053 0.85-0.032 1.714-0.037 2.566-0.008 1.275-0.133 2.683 0.159 3.924 0.044 0.115 0.093 0.223 0.153 0.331 0.258 0.469 0.416 0.419 0.875 0.57 0.156 0.051 0.247 0.115 0.315 0.26-0.006 0.123-0.025 0.17-0.098 0.269-0.041 0.026-0.057 0.041-0.11 0.050-0.166 0.032-4.158 0.014-4.384-0.023-0.155-0.026-0.264-0.060-0.362-0.192 0.064-0.377 0.484-0.35 0.736-0.594 0.289-0.279 0.434-0.653 0.514-1.040 0.175-0.842 0.107-1.795 0.104-2.655l-0.016-3.479-1.633-0.006c-0.033-0.359-0.035-0.722-0.045-1.083l1.626-0.001c-0.080-0.243-0.159-0.496-0.194-0.75-0.104-0.751 0.071-1.515 0.533-2.123 0.614-0.809 1.601-1.222 2.585-1.35z"></path>
<path d="M28.315 1.038c0.658-0.055 1.29-0.007 1.88 0.316 0.471 0.258 0.874 0.684 1.019 1.212 0.090 0.327 0.099 0.741-0.085 1.038-0.131 0.211-0.349 0.334-0.589 0.379-0.218 0.041-0.507 0.040-0.69-0.106-0.346-0.277-0.114-0.81-0.191-1.178-0.046-0.221-0.225-0.409-0.418-0.515-0.305-0.167-0.744-0.188-1.074-0.088-0.274 0.082-0.481 0.261-0.606 0.518-0.364 0.743-0.088 1.882 0.162 2.622 0.82 0.049 1.658 0.011 2.48 0.015 0.021 0.367 0.002 0.726-0.020 1.092-0.835-0.002-1.67 0.001-2.505 0.009-0.038 1.044-0.054 2.088-0.046 3.133-0.003 1.076-0.11 2.285 0.206 3.323 0.347 0.76 1.067 0.888 1.237 1.294-0.026 0.074-0.015 0.087-0.089 0.13-0.263 0.157-4.261 0.127-4.618 0.042-0.014-0.049-0.032-0.105-0.034-0.155-0.011-0.317 0.489-0.45 0.681-0.64 0.267-0.264 0.4-0.753 0.462-1.117 0.139-0.818 0.095-1.72 0.094-2.549l-0.007-3.463-1.628-0.007c-0.025-0.361-0.024-0.721-0.023-1.083 0.519 0.006 1.039 0.005 1.558-0.002-0.080-0.265-0.165-0.53-0.206-0.804-0.111-0.745 0.051-1.482 0.507-2.088 0.612-0.814 1.565-1.191 2.545-1.329z"></path>
</symbol>
<symbol id="icon-phone" viewBox="0 0 32 32">
<path d="M24.135 17.438c-0.152-0.152-0.333-0.273-0.532-0.356s-0.412-0.125-0.628-0.125-0.429 0.042-0.628 0.125c-0.199 0.083-0.38 0.204-0.532 0.356l-2.616 2.616c-1.213-0.361-3.476-1.182-4.91-2.616s-2.255-3.697-2.616-4.91l2.616-2.616c0.153-0.152 0.274-0.333 0.356-0.532s0.125-0.412 0.125-0.628-0.043-0.429-0.125-0.628c-0.083-0.199-0.204-0.38-0.356-0.532l-6.564-6.564c-0.152-0.153-0.333-0.274-0.532-0.356s-0.412-0.125-0.628-0.125c-0.216 0-0.429 0.042-0.628 0.125s-0.38 0.204-0.532 0.356l-4.45 4.45c-0.624 0.624-0.975 1.48-0.962 2.355 0.038 2.337 0.656 10.453 7.053 16.85s14.513 7.014 16.852 7.053h0.046c0.866 0 1.685-0.341 2.306-0.962l4.45-4.45c0.152-0.152 0.273-0.333 0.356-0.532s0.125-0.413 0.125-0.628-0.042-0.429-0.125-0.628c-0.083-0.199-0.204-0.38-0.356-0.532l-6.564-6.566zM23.927 28.453c-2.048-0.034-9.055-0.584-14.561-6.091-5.524-5.524-6.059-12.555-6.091-14.562l3.29-3.29 4.244 4.244-2.122 2.122c-0.193 0.193-0.335 0.431-0.413 0.692s-0.090 0.538-0.034 0.805c0.039 0.189 1.003 4.664 3.727 7.388s7.199 3.687 7.388 3.727c0.267 0.057 0.544 0.047 0.805-0.031s0.499-0.22 0.691-0.414l2.124-2.122 4.244 4.244-3.292 3.29z"></path>
</symbol>
<symbol id="icon-star" viewBox="0 0 34 32">
<path stroke-linejoin="miter" stroke-linecap="butt" stroke-miterlimit="4" stroke-width="1.6842" d="M16.052 1.359c0.29-0.688 1.289-0.688 1.579 0l3.416 8.115c0.368 0.873 1.197 1.465 2.14 1.539l8.869 0.702c0.771 0.061 1.046 0.986 0.49 1.457l-6.758 5.719c-0.724 0.612-1.044 1.579-0.821 2.502l2.066 8.549c0.167 0.694-0.609 1.303-1.279 0.898h-0.002l-7.59-4.581c-0.81-0.489-1.828-0.489-2.638 0l-7.592 4.581c-0.671 0.405-1.447-0.204-1.28-0.898l2.066-8.549c0.223-0.923-0.097-1.889-0.821-2.502l-6.758-5.719c-0.556-0.472-0.281-1.396 0.49-1.457l8.868-0.702c0.943-0.075 1.772-0.666 2.14-1.539l3.416-8.115z"></path>
</symbol>
<symbol id="icon-x" viewBox="0 0 36 32">
<path d="M28.543 0.039h5.195l-11.351 12.757 13.353 17.36h-10.455l-8.189-10.529-9.37 10.529h-5.199l12.141-13.646-12.81-16.472h10.721l7.402 9.624 8.561-9.624zM26.719 27.098h2.879l-18.583-24.162h-3.089l18.794 24.162z"></path>
</symbol>
</defs>
</svg>
