<svg width="22" height="28" viewBox="0 0 22 28" fill="none" xmlns="http://www.w3.org/2000/svg">
<path d="M11.0002 16.4443C13.9416 16.4443 16.3336 14.0523 16.3336 11.111C16.3336 8.16967 13.9416 5.77767 11.0002 5.77767C8.05891 5.77767 5.66691 8.16967 5.66691 11.111C5.66691 14.0523 8.05891 16.4443 11.0002 16.4443ZM11.0002 8.44434C12.4709 8.44434 13.6669 9.64034 13.6669 11.111C13.6669 12.5817 12.4709 13.7777 11.0002 13.7777C9.52958 13.7777 8.33358 12.5817 8.33358 11.111C8.33358 9.64034 9.52958 8.44434 11.0002 8.44434Z" fill="#0B0803"/>
<path d="M10.2269 26.863C10.4526 27.0242 10.723 27.1108 11.0003 27.1108C11.2776 27.1108 11.5479 27.0242 11.7736 26.863C12.1789 26.5763 21.7056 19.6977 21.6669 11.111C21.6669 5.22967 16.8816 0.444336 11.0003 0.444336C5.11895 0.444336 0.333613 5.22967 0.333613 11.1043C0.294947 19.6977 9.82161 26.5763 10.2269 26.863ZM11.0003 3.111C15.4123 3.111 19.0003 6.699 19.0003 11.1177C19.0283 17.035 13.1496 22.3483 11.0003 24.091C8.85228 22.347 2.97228 17.0323 3.00028 11.111C3.00028 6.699 6.58828 3.111 11.0003 3.111Z" fill="#0B0803"/>
</svg>
