<svg width="28" height="22" viewBox="0 0 28 22" fill="none" xmlns="http://www.w3.org/2000/svg">
<path d="M24.6665 0.111328H3.33317C1.8625 0.111328 0.666504 1.30733 0.666504 2.77799V18.778C0.666504 20.2487 1.8625 21.4447 3.33317 21.4447H24.6665C26.1372 21.4447 27.3332 20.2487 27.3332 18.778V2.77799C27.3332 1.30733 26.1372 0.111328 24.6665 0.111328ZM24.6665 2.77799V3.45933L13.9998 11.7567L3.33317 3.46066V2.77799H24.6665ZM3.33317 18.778V6.83666L13.1812 14.4967C13.4146 14.6801 13.7029 14.7797 13.9998 14.7797C14.2967 14.7797 14.585 14.6801 14.8185 14.4967L24.6665 6.83666L24.6692 18.778H3.33317Z" fill="#0B0803"/>
</svg>
