<svg width="26" height="26" viewBox="0 0 26 26" fill="none" xmlns="http://www.w3.org/2000/svg">
<path d="M19.6099 14.1686C19.4862 14.0447 19.3393 13.9464 19.1775 13.8793C19.0158 13.8122 18.8424 13.7777 18.6673 13.7777C18.4922 13.7777 18.3188 13.8122 18.157 13.8793C17.9953 13.9464 17.8483 14.0447 17.7246 14.1686L15.5993 16.2939C14.6139 16.0006 12.7753 15.3339 11.6099 14.1686C10.4446 13.0033 9.77794 11.1646 9.48461 10.1793L11.6099 8.05394C11.7339 7.93022 11.8322 7.78328 11.8993 7.62153C11.9663 7.45977 12.0009 7.28638 12.0009 7.11127C12.0009 6.93616 11.9663 6.76277 11.8993 6.60101C11.8322 6.43926 11.7339 6.29232 11.6099 6.1686L6.27661 0.835271C6.15289 0.711343 6.00595 0.613026 5.8442 0.545945C5.68245 0.478864 5.50905 0.444336 5.33394 0.444336C5.15883 0.444336 4.98544 0.478864 4.82368 0.545945C4.66193 0.613026 4.51499 0.711343 4.39127 0.835271L0.775275 4.45127C0.268608 4.95794 -0.0167256 5.65394 -0.00605893 6.3646C0.0246077 8.26327 0.527275 14.8579 5.72461 20.0553C10.9219 25.2526 17.5166 25.7539 19.4166 25.7859H19.4539C20.1579 25.7859 20.8233 25.5086 21.3273 25.0046L24.9433 21.3886C25.0672 21.2649 25.1655 21.1179 25.2326 20.9562C25.2997 20.7944 25.3342 20.621 25.3342 20.4459C25.3342 20.2708 25.2997 20.0974 25.2326 19.9357C25.1655 19.7739 25.0672 19.627 24.9433 19.5033L19.6099 14.1686ZM19.4406 23.1179C17.7766 23.0899 12.0833 22.6433 7.60994 18.1686C3.12194 13.6806 2.68727 7.96727 2.66061 6.3366L5.33394 3.66327L8.78194 7.11127L7.05794 8.83527C6.90122 8.99187 6.786 9.18505 6.72268 9.39736C6.65936 9.60967 6.64994 9.83441 6.69527 10.0513C6.72727 10.2046 7.50994 13.8406 9.72327 16.0539C11.9366 18.2673 15.5726 19.0499 15.7259 19.0819C15.9427 19.1285 16.1676 19.1199 16.3801 19.0567C16.5926 18.9936 16.7858 18.878 16.9419 18.7206L18.6673 16.9966L22.1153 20.4446L19.4406 23.1179Z" fill="#0B0803"/>
</svg>
